<svg xmlns="http://www.w3.org/2000/svg" id="export" class="canvas" preserveAspectRatio="xMidYMid meet" style="" width="148" height="1239"><rect id="background" fill="#fff" pointer-events="all" cursor="default" width="148" height="1239"/><g id="origin" transform="translate(6.7132812500000005, 6.713281250000569) scale(1)"><g id="clusters" class="clusters"/><g id="edge-paths" class="edge-paths"><defs><marker id="arrowhead-vee" viewBox="0 0 10 10" refX="9" refY="5" markerUnits="strokeWidth" markerWidth="8" markerHeight="6" orient="auto" style="fill: rgb(0, 0, 0);"><path d="M 0 0 L 10 5 L 0 10 L 4 5 z" style="stroke-width: 1;"/></marker><marker id="arrowhead-vee-select" viewBox="0 0 10 10" refX="9" refY="5" markerUnits="strokeWidth" markerWidth="8" markerHeight="6" orient="auto" style="fill: rgb(238, 0, 0);"><path d="M 0 0 L 10 5 L 0 10 L 4 5 z" style="stroke-width: 1;"/></marker></defs><path id="edge-input" class="edge-path" d="M59.953125,21L59.953125,22.666666666666668C59.953125,24.333333333333332,59.953125,27.666666666666668,59.953125,32.833333333333336C59.953125,38,59.953125,45,59.953125,52C59.953125,59,59.953125,66,59.953125,71.16666666666667C59.953125,76.33333333333333,59.953125,79.66666666666667,59.953125,81.33333333333333L59.953125,83" style="stroke: rgb(0, 0, 0); stroke-width: 1px; fill: none; marker-end: url(&quot;#arrowhead-vee&quot;);"/><path id="edge-conv2d_input" class="edge-path" d="M59.953125,104.0302734375L59.953125,105.69694010416667C59.953125,107.36360677083333,59.953125,110.69694010416667,59.953125,114.0302734375C59.953125,117.36360677083333,59.953125,120.69694010416667,59.953125,122.36360677083333L59.953125,124.0302734375" style="stroke: rgb(0, 0, 0); stroke-width: 1px; fill: none; marker-end: url(&quot;#arrowhead-vee&quot;);"/><path id="edge-conv2d" class="edge-path" d="M59.953125,198.0302734375L59.953125,199.69694010416666C59.953125,201.36360677083334,59.953125,204.69694010416666,59.953125,208.0302734375C59.953125,211.36360677083334,59.953125,214.69694010416666,59.953125,216.36360677083334L59.953125,218.0302734375" style="stroke: rgb(0, 0, 0); stroke-width: 1px; fill: none; marker-end: url(&quot;#arrowhead-vee&quot;);"/><path id="edge-max_pooling2d" class="edge-path" d="M59.953125,239.0712890625L59.953125,240.73795572916666C59.953125,242.40462239583334,59.953125,245.73795572916666,59.953125,249.0712890625C59.953125,252.40462239583334,59.953125,255.73795572916666,59.953125,257.4046223958333L59.953125,259.0712890625" style="stroke: rgb(0, 0, 0); stroke-width: 1px; fill: none; marker-end: url(&quot;#arrowhead-vee&quot;);"/><path id="edge-conv2d_1" class="edge-path" d="M59.953125,333.0712890625L59.953125,334.7379557291667C59.953125,336.4046223958333,59.953125,339.7379557291667,59.953125,343.0712890625C59.953125,346.4046223958333,59.953125,349.7379557291667,59.953125,351.4046223958333L59.953125,353.0712890625" style="stroke: rgb(0, 0, 0); stroke-width: 1px; fill: none; marker-end: url(&quot;#arrowhead-vee&quot;);"/><path id="edge-max_pooling2d_1" class="edge-path" d="M59.953125,374.1123046875L59.953125,375.7789713541667C59.953125,377.4456380208333,59.953125,380.7789713541667,59.953125,384.1123046875C59.953125,387.4456380208333,59.953125,390.7789713541667,59.953125,392.4456380208333L59.953125,394.1123046875" style="stroke: rgb(0, 0, 0); stroke-width: 1px; fill: none; marker-end: url(&quot;#arrowhead-vee&quot;);"/><path id="edge-conv2d_2" class="edge-path" d="M59.953125,468.1123046875L59.953125,469.7789713541667C59.953125,471.4456380208333,59.953125,474.7789713541667,59.953125,478.1123046875C59.953125,481.4456380208333,59.953125,484.7789713541667,59.953125,486.4456380208333L59.953125,488.1123046875" style="stroke: rgb(0, 0, 0); stroke-width: 1px; fill: none; marker-end: url(&quot;#arrowhead-vee&quot;);"/><path id="edge-max_pooling2d_2" class="edge-path" d="M59.953125,509.1533203125L59.953125,510.8199869791667C59.953125,512.4866536458334,59.953125,515.8199869791666,59.953125,519.1533203125C59.953125,522.4866536458334,59.953125,525.8199869791666,59.953125,527.4866536458334L59.953125,529.1533203125" style="stroke: rgb(0, 0, 0); stroke-width: 1px; fill: none; marker-end: url(&quot;#arrowhead-vee&quot;);"/><path id="edge-conv2d_3" class="edge-path" d="M59.953125,603.1533203125L59.953125,604.8199869791666C59.953125,606.4866536458334,59.953125,609.8199869791666,59.953125,613.1533203125C59.953125,616.4866536458334,59.953125,619.8199869791666,59.953125,621.4866536458334L59.953125,623.1533203125" style="stroke: rgb(0, 0, 0); stroke-width: 1px; fill: none; marker-end: url(&quot;#arrowhead-vee&quot;);"/><path id="edge-max_pooling2d_3" class="edge-path" d="M59.953125,644.1943359375L59.953125,645.8610026041666C59.953125,647.5276692708334,59.953125,650.8610026041666,59.953125,654.1943359375C59.953125,657.5276692708334,59.953125,660.8610026041666,59.953125,662.5276692708334L59.953125,664.1943359375" style="stroke: rgb(0, 0, 0); stroke-width: 1px; fill: none; marker-end: url(&quot;#arrowhead-vee&quot;);"/><path id="edge-flatten" class="edge-path" d="M59.953125,685.1943359375L59.953125,686.8610026041666C59.953125,688.5276692708334,59.953125,691.8610026041666,59.953125,695.1943359375C59.953125,698.5276692708334,59.953125,701.8610026041666,59.953125,703.5276692708334L59.953125,705.1943359375" style="stroke: rgb(0, 0, 0); stroke-width: 1px; fill: none; marker-end: url(&quot;#arrowhead-vee&quot;);"/><path id="edge-dense" class="edge-path" d="M59.953125,779.1943359375L59.953125,780.8610026041666C59.953125,782.5276692708334,59.953125,785.8610026041666,59.953125,789.1943359375C59.953125,792.5276692708334,59.953125,795.8610026041666,59.953125,797.5276692708334L59.953125,799.1943359375" style="stroke: rgb(0, 0, 0); stroke-width: 1px; fill: none; marker-end: url(&quot;#arrowhead-vee&quot;);"/><path id="edge-dropout" class="edge-path" d="M59.953125,820.1943359375L59.953125,821.8610026041666C59.953125,823.5276692708334,59.953125,826.8610026041666,59.953125,830.1943359375C59.953125,833.5276692708334,59.953125,836.8610026041666,59.953125,838.5276692708334L59.953125,840.1943359375" style="stroke: rgb(0, 0, 0); stroke-width: 1px; fill: none; marker-end: url(&quot;#arrowhead-vee&quot;);"/><path id="edge-dense_1" class="edge-path" d="M59.953125,914.1943359375L59.953125,915.8610026041666C59.953125,917.5276692708334,59.953125,920.8610026041666,59.953125,924.1943359375C59.953125,927.5276692708334,59.953125,930.8610026041666,59.953125,932.5276692708334L59.953125,934.1943359375" style="stroke: rgb(0, 0, 0); stroke-width: 1px; fill: none; marker-end: url(&quot;#arrowhead-vee&quot;);"/><path id="edge-dropout_1" class="edge-path" d="M59.953125,955.1943359375L59.953125,956.8610026041666C59.953125,958.5276692708334,59.953125,961.8610026041666,59.953125,965.1943359375C59.953125,968.5276692708334,59.953125,971.8610026041666,59.953125,973.5276692708334L59.953125,975.1943359375" style="stroke: rgb(0, 0, 0); stroke-width: 1px; fill: none; marker-end: url(&quot;#arrowhead-vee&quot;);"/><path id="edge-dense_2" class="edge-path" d="M59.953125,1049.1943359375L59.953125,1050.8610026041667C59.953125,1052.5276692708333,59.953125,1055.8610026041667,59.953125,1059.1943359375C59.953125,1062.5276692708333,59.953125,1065.8610026041667,59.953125,1067.5276692708333L59.953125,1069.1943359375" style="stroke: rgb(0, 0, 0); stroke-width: 1px; fill: none; marker-end: url(&quot;#arrowhead-vee&quot;);"/><path id="edge-dropout_2" class="edge-path" d="M59.953125,1090.1943359375L59.953125,1091.8610026041667C59.953125,1093.5276692708333,59.953125,1096.8610026041667,59.953125,1100.1943359375C59.953125,1103.5276692708333,59.953125,1106.8610026041667,59.953125,1108.5276692708333L59.953125,1110.1943359375" style="stroke: rgb(0, 0, 0); stroke-width: 1px; fill: none; marker-end: url(&quot;#arrowhead-vee&quot;);"/><path id="edge-dense_3" class="edge-path" d="M59.953125,1184.1943359375L59.953125,1185.8610026041667C59.953125,1187.5276692708333,59.953125,1190.8610026041667,59.953125,1194.1943359375C59.953125,1197.5276692708333,59.953125,1200.8610026041667,59.953125,1202.5276692708333L59.953125,1204.1943359375" style="stroke: rgb(0, 0, 0); stroke-width: 1px; fill: none; marker-end: url(&quot;#arrowhead-vee&quot;);"/></g><g id="edge-labels" class="edge-labels"><text class="edge-label" id="edge-label-edge-input" transform="translate(64.953125,46)" style="opacity: 1; font-family: -apple-system, BlinkMacSystemFont, &quot;Segoe WPC&quot;, &quot;Segoe UI&quot;, Ubuntu, &quot;Droid Sans&quot;, sans-serif, &quot;PingFang SC&quot;; font-size: 10px;"><tspan xml:space="preserve" dy="1em" x="1">?×224×224×3</tspan></text></g><g id="nodes" class="nodes"><g id="input-name-input" class="node graph-input" transform="translate(39.65625,0)" style="opacity: 1;"><g class="node-item graph-item-input" transform="translate(0,0)"><path d="M5,0h30.59375a5,5 0 0 1 5,5v11a5,5 0 0 1 -5,5h-30.59375a5,5 0 0 1 -5,-5v-11a5,5 0 0 1 5,-5z" style="stroke: rgb(0, 0, 0); fill: rgb(238, 238, 238); stroke-width: 0;"/><text x="6" y="15" style="font-family: -apple-system, BlinkMacSystemFont, &quot;Segoe WPC&quot;, &quot;Segoe UI&quot;, Ubuntu, &quot;Droid Sans&quot;, sans-serif, &quot;PingFang SC&quot;; font-size: 11px; text-rendering: geometricprecision;">input</text><title>float32[?,224,224,3]</title></g><path class="node border" d="M5,0h30.59375a5,5 0 0 1 5,5v11a5,5 0 0 1 -5,5h-30.59375a5,5 0 0 1 -5,-5v-11a5,5 0 0 1 5,-5z" style="stroke: rgb(51, 51, 51); fill: none; stroke-width: 1px;"/></g><g id="node-name-conv2d_input" class="node graph-node" transform="translate(25.21875,83)" style="opacity: 1;"><g class="node-item node-item-type node-item-type-data" transform="translate(0,0)"><path d="M5,0h59.46875a5,5 0 0 1 5,5v11.0302734375a5,5 0 0 1 -5,5h-59.46875a5,5 0 0 1 -5,-5v-11.0302734375a5,5 0 0 1 5,-5z" style="stroke: rgb(0, 0, 0); fill: rgb(85, 85, 85); stroke-width: 0;"/><text x="6" y="15" style="font-family: -apple-system, BlinkMacSystemFont, &quot;Segoe WPC&quot;, &quot;Segoe UI&quot;, Ubuntu, &quot;Droid Sans&quot;, sans-serif, &quot;PingFang SC&quot;; font-size: 11px; text-rendering: geometricprecision; fill: rgb(255, 255, 255);">InputLayer</text><title>conv2d_input</title></g><path class="node border" d="M5,0h59.46875a5,5 0 0 1 5,5v11.0302734375a5,5 0 0 1 -5,5h-59.46875a5,5 0 0 1 -5,-5v-11.0302734375a5,5 0 0 1 5,-5z" style="stroke: rgb(51, 51, 51); fill: none; stroke-width: 1px;"/></g><g id="node-name-conv2d" class="node graph-node" transform="translate(5.0234375,124.0302734375)" style="opacity: 1;"><g class="node-item node-item-type node-item-type-layer" transform="translate(0,0)"><path d="M5,0h99.859375a5,5 0 0 1 5,5v16a0,0 0 0 1 0,0h-109.859375a0,0 0 0 1 0,0v-16a5,5 0 0 1 5,-5z" style="stroke: rgb(0, 0, 0); fill: rgb(51, 85, 136); stroke-width: 0;"/><text x="6" y="15" style="font-family: -apple-system, BlinkMacSystemFont, &quot;Segoe WPC&quot;, &quot;Segoe UI&quot;, Ubuntu, &quot;Droid Sans&quot;, sans-serif, &quot;PingFang SC&quot;; font-size: 11px; text-rendering: geometricprecision; fill: rgb(255, 255, 255);">Conv2D</text><title>conv2d</title></g><g class="node-attribute" transform="translate(0,21)"><path d="M0,0h109.859375a0,0 0 0 1 0,0v32a0,0 0 0 1 0,0h-109.859375a0,0 0 0 1 0,0v-32a0,0 0 0 1 0,0z" style="stroke: rgb(0, 0, 0); fill: rgb(255, 255, 255); stroke-width: 0;"/><text id="initializer-conv2d/kernel:0" xml:space="preserve" x="6" y="13" style="font-family: -apple-system, BlinkMacSystemFont, &quot;Segoe WPC&quot;, &quot;Segoe UI&quot;, Ubuntu, &quot;Droid Sans&quot;, sans-serif, &quot;PingFang SC&quot;; font-size: 9px; font-weight: normal; text-rendering: geometricprecision;"><title>float32[5,5,3,128]</title><tspan style="font-weight: bold;">kernel</tspan><tspan>〈5×5×3×128〉</tspan></text><text id="initializer-conv2d/bias:0" xml:space="preserve" x="6" y="26" style="font-family: -apple-system, BlinkMacSystemFont, &quot;Segoe WPC&quot;, &quot;Segoe UI&quot;, Ubuntu, &quot;Droid Sans&quot;, sans-serif, &quot;PingFang SC&quot;; font-size: 9px; font-weight: normal; text-rendering: geometricprecision;"><title>float32[128]</title><tspan style="font-weight: bold;">bias</tspan><tspan>〈128〉</tspan></text><line class="node" x1="0" x2="109.859375" y1="0" y2="0" style="stroke: rgb(51, 51, 51); fill: none; stroke-width: 1px;"/></g><g class="node-item node-item-type node-item-type-activation" transform="translate(0,53)"><path d="M0,0h109.859375a0,0 0 0 1 0,0v16a5,5 0 0 1 -5,5h-99.859375a5,5 0 0 1 -5,-5v-16a0,0 0 0 1 0,0z" style="stroke: rgb(0, 0, 0); fill: rgb(112, 41, 33); stroke-width: 0;"/><text x="6" y="15" style="font-family: -apple-system, BlinkMacSystemFont, &quot;Segoe WPC&quot;, &quot;Segoe UI&quot;, Ubuntu, &quot;Droid Sans&quot;, sans-serif, &quot;PingFang SC&quot;; font-size: 11px; text-rendering: geometricprecision; fill: rgb(255, 255, 255);">ReLU</text></g><line class="node" x1="0" x2="109.859375" y1="53" y2="53" style="stroke: rgb(51, 51, 51); fill: none; stroke-width: 1px;"/><path class="node border" d="M5,0h99.859375a5,5 0 0 1 5,5v64a5,5 0 0 1 -5,5h-99.859375a5,5 0 0 1 -5,-5v-64a5,5 0 0 1 5,-5z" style="stroke: rgb(51, 51, 51); fill: none; stroke-width: 1px;"/></g><g id="node-name-max_pooling2d" class="node graph-node" transform="translate(15.296871185302734,218.0302734375)" style="opacity: 1;"><g class="node-item node-item-type node-item-type-pool" transform="translate(0,0)"><path d="M5,0h79.3125a5,5 0 0 1 5,5v11.041015625a5,5 0 0 1 -5,5h-79.3125a5,5 0 0 1 -5,-5v-11.041015625a5,5 0 0 1 5,-5z" style="stroke: rgb(0, 0, 0); fill: rgb(51, 85, 51); stroke-width: 0;"/><text x="6" y="15" style="font-family: -apple-system, BlinkMacSystemFont, &quot;Segoe WPC&quot;, &quot;Segoe UI&quot;, Ubuntu, &quot;Droid Sans&quot;, sans-serif, &quot;PingFang SC&quot;; font-size: 11px; text-rendering: geometricprecision; fill: rgb(255, 255, 255);">MaxPooling2D</text><title>max_pooling2d</title></g><path class="node border" d="M5,0h79.3125a5,5 0 0 1 5,5v11.041015625a5,5 0 0 1 -5,5h-79.3125a5,5 0 0 1 -5,-5v-11.041015625a5,5 0 0 1 5,-5z" style="stroke: rgb(51, 51, 51); fill: none; stroke-width: 1px;"/></g><g id="node-name-conv2d_1" class="node graph-node" transform="translate(0,259.0712890625)" style="opacity: 1;"><g class="node-item node-item-type node-item-type-layer" transform="translate(0,0)"><path d="M5,0h109.90625a5,5 0 0 1 5,5v16a0,0 0 0 1 0,0h-119.90625a0,0 0 0 1 0,0v-16a5,5 0 0 1 5,-5z" style="stroke: rgb(0, 0, 0); fill: rgb(51, 85, 136); stroke-width: 0;"/><text x="6" y="15" style="font-family: -apple-system, BlinkMacSystemFont, &quot;Segoe WPC&quot;, &quot;Segoe UI&quot;, Ubuntu, &quot;Droid Sans&quot;, sans-serif, &quot;PingFang SC&quot;; font-size: 11px; text-rendering: geometricprecision; fill: rgb(255, 255, 255);">Conv2D</text><title>conv2d_1</title></g><g class="node-attribute" transform="translate(0,21)"><path d="M0,0h119.90625a0,0 0 0 1 0,0v32a0,0 0 0 1 0,0h-119.90625a0,0 0 0 1 0,0v-32a0,0 0 0 1 0,0z" style="stroke: rgb(0, 0, 0); fill: rgb(255, 255, 255); stroke-width: 0;"/><text id="initializer-conv2d_1/kernel:0" xml:space="preserve" x="6" y="13" style="font-family: -apple-system, BlinkMacSystemFont, &quot;Segoe WPC&quot;, &quot;Segoe UI&quot;, Ubuntu, &quot;Droid Sans&quot;, sans-serif, &quot;PingFang SC&quot;; font-size: 9px; font-weight: normal; text-rendering: geometricprecision;"><title>float32[5,5,128,128]</title><tspan style="font-weight: bold;">kernel</tspan><tspan>〈5×5×128×128〉</tspan></text><text id="initializer-conv2d_1/bias:0" xml:space="preserve" x="6" y="26" style="font-family: -apple-system, BlinkMacSystemFont, &quot;Segoe WPC&quot;, &quot;Segoe UI&quot;, Ubuntu, &quot;Droid Sans&quot;, sans-serif, &quot;PingFang SC&quot;; font-size: 9px; font-weight: normal; text-rendering: geometricprecision;"><title>float32[128]</title><tspan style="font-weight: bold;">bias</tspan><tspan>〈128〉</tspan></text><line class="node" x1="0" x2="119.90625" y1="0" y2="0" style="stroke: rgb(51, 51, 51); fill: none; stroke-width: 1px;"/></g><g class="node-item node-item-type node-item-type-activation" transform="translate(0,53)"><path d="M0,0h119.90625a0,0 0 0 1 0,0v16a5,5 0 0 1 -5,5h-109.90625a5,5 0 0 1 -5,-5v-16a0,0 0 0 1 0,0z" style="stroke: rgb(0, 0, 0); fill: rgb(112, 41, 33); stroke-width: 0;"/><text x="6" y="15" style="font-family: -apple-system, BlinkMacSystemFont, &quot;Segoe WPC&quot;, &quot;Segoe UI&quot;, Ubuntu, &quot;Droid Sans&quot;, sans-serif, &quot;PingFang SC&quot;; font-size: 11px; text-rendering: geometricprecision; fill: rgb(255, 255, 255);">ReLU</text></g><line class="node" x1="0" x2="119.90625" y1="53" y2="53" style="stroke: rgb(51, 51, 51); fill: none; stroke-width: 1px;"/><path class="node border" d="M5,0h109.90625a5,5 0 0 1 5,5v64a5,5 0 0 1 -5,5h-109.90625a5,5 0 0 1 -5,-5v-64a5,5 0 0 1 5,-5z" style="stroke: rgb(51, 51, 51); fill: none; stroke-width: 1px;"/></g><g id="node-name-max_pooling2d_1" class="node graph-node" transform="translate(15.296871185302734,353.0712890625)" style="opacity: 1;"><g class="node-item node-item-type node-item-type-pool" transform="translate(0,0)"><path d="M5,0h79.3125a5,5 0 0 1 5,5v11.041015625a5,5 0 0 1 -5,5h-79.3125a5,5 0 0 1 -5,-5v-11.041015625a5,5 0 0 1 5,-5z" style="stroke: rgb(0, 0, 0); fill: rgb(51, 85, 51); stroke-width: 0;"/><text x="6" y="15" style="font-family: -apple-system, BlinkMacSystemFont, &quot;Segoe WPC&quot;, &quot;Segoe UI&quot;, Ubuntu, &quot;Droid Sans&quot;, sans-serif, &quot;PingFang SC&quot;; font-size: 11px; text-rendering: geometricprecision; fill: rgb(255, 255, 255);">MaxPooling2D</text><title>max_pooling2d_1</title></g><path class="node border" d="M5,0h79.3125a5,5 0 0 1 5,5v11.041015625a5,5 0 0 1 -5,5h-79.3125a5,5 0 0 1 -5,-5v-11.041015625a5,5 0 0 1 5,-5z" style="stroke: rgb(51, 51, 51); fill: none; stroke-width: 1px;"/></g><g id="node-name-conv2d_2" class="node graph-node" transform="translate(0,394.1123046875)" style="opacity: 1;"><g class="node-item node-item-type node-item-type-layer" transform="translate(0,0)"><path d="M5,0h109.90625a5,5 0 0 1 5,5v16a0,0 0 0 1 0,0h-119.90625a0,0 0 0 1 0,0v-16a5,5 0 0 1 5,-5z" style="stroke: rgb(0, 0, 0); fill: rgb(51, 85, 136); stroke-width: 0;"/><text x="6" y="15" style="font-family: -apple-system, BlinkMacSystemFont, &quot;Segoe WPC&quot;, &quot;Segoe UI&quot;, Ubuntu, &quot;Droid Sans&quot;, sans-serif, &quot;PingFang SC&quot;; font-size: 11px; text-rendering: geometricprecision; fill: rgb(255, 255, 255);">Conv2D</text><title>conv2d_2</title></g><g class="node-attribute" transform="translate(0,21)"><path d="M0,0h119.90625a0,0 0 0 1 0,0v32a0,0 0 0 1 0,0h-119.90625a0,0 0 0 1 0,0v-32a0,0 0 0 1 0,0z" style="stroke: rgb(0, 0, 0); fill: rgb(255, 255, 255); stroke-width: 0;"/><text id="initializer-conv2d_2/kernel:0" xml:space="preserve" x="6" y="13" style="font-family: -apple-system, BlinkMacSystemFont, &quot;Segoe WPC&quot;, &quot;Segoe UI&quot;, Ubuntu, &quot;Droid Sans&quot;, sans-serif, &quot;PingFang SC&quot;; font-size: 9px; font-weight: normal; text-rendering: geometricprecision;"><title>float32[5,5,128,128]</title><tspan style="font-weight: bold;">kernel</tspan><tspan>〈5×5×128×128〉</tspan></text><text id="initializer-conv2d_2/bias:0" xml:space="preserve" x="6" y="26" style="font-family: -apple-system, BlinkMacSystemFont, &quot;Segoe WPC&quot;, &quot;Segoe UI&quot;, Ubuntu, &quot;Droid Sans&quot;, sans-serif, &quot;PingFang SC&quot;; font-size: 9px; font-weight: normal; text-rendering: geometricprecision;"><title>float32[128]</title><tspan style="font-weight: bold;">bias</tspan><tspan>〈128〉</tspan></text><line class="node" x1="0" x2="119.90625" y1="0" y2="0" style="stroke: rgb(51, 51, 51); fill: none; stroke-width: 1px;"/></g><g class="node-item node-item-type node-item-type-activation" transform="translate(0,53)"><path d="M0,0h119.90625a0,0 0 0 1 0,0v16a5,5 0 0 1 -5,5h-109.90625a5,5 0 0 1 -5,-5v-16a0,0 0 0 1 0,0z" style="stroke: rgb(0, 0, 0); fill: rgb(112, 41, 33); stroke-width: 0;"/><text x="6" y="15" style="font-family: -apple-system, BlinkMacSystemFont, &quot;Segoe WPC&quot;, &quot;Segoe UI&quot;, Ubuntu, &quot;Droid Sans&quot;, sans-serif, &quot;PingFang SC&quot;; font-size: 11px; text-rendering: geometricprecision; fill: rgb(255, 255, 255);">ReLU</text></g><line class="node" x1="0" x2="119.90625" y1="53" y2="53" style="stroke: rgb(51, 51, 51); fill: none; stroke-width: 1px;"/><path class="node border" d="M5,0h109.90625a5,5 0 0 1 5,5v64a5,5 0 0 1 -5,5h-109.90625a5,5 0 0 1 -5,-5v-64a5,5 0 0 1 5,-5z" style="stroke: rgb(51, 51, 51); fill: none; stroke-width: 1px;"/></g><g id="node-name-max_pooling2d_2" class="node graph-node" transform="translate(15.296871185302734,488.1123046875)" style="opacity: 1;"><g class="node-item node-item-type node-item-type-pool" transform="translate(0,0)"><path d="M5,0h79.3125a5,5 0 0 1 5,5v11.041015625a5,5 0 0 1 -5,5h-79.3125a5,5 0 0 1 -5,-5v-11.041015625a5,5 0 0 1 5,-5z" style="stroke: rgb(0, 0, 0); fill: rgb(51, 85, 51); stroke-width: 0;"/><text x="6" y="15" style="font-family: -apple-system, BlinkMacSystemFont, &quot;Segoe WPC&quot;, &quot;Segoe UI&quot;, Ubuntu, &quot;Droid Sans&quot;, sans-serif, &quot;PingFang SC&quot;; font-size: 11px; text-rendering: geometricprecision; fill: rgb(255, 255, 255);">MaxPooling2D</text><title>max_pooling2d_2</title></g><path class="node border" d="M5,0h79.3125a5,5 0 0 1 5,5v11.041015625a5,5 0 0 1 -5,5h-79.3125a5,5 0 0 1 -5,-5v-11.041015625a5,5 0 0 1 5,-5z" style="stroke: rgb(51, 51, 51); fill: none; stroke-width: 1px;"/></g><g id="node-name-conv2d_3" class="node graph-node" transform="translate(0,529.1533203125)" style="opacity: 1;"><g class="node-item node-item-type node-item-type-layer" transform="translate(0,0)"><path d="M5,0h109.90625a5,5 0 0 1 5,5v16a0,0 0 0 1 0,0h-119.90625a0,0 0 0 1 0,0v-16a5,5 0 0 1 5,-5z" style="stroke: rgb(0, 0, 0); fill: rgb(51, 85, 136); stroke-width: 0;"/><text x="6" y="15" style="font-family: -apple-system, BlinkMacSystemFont, &quot;Segoe WPC&quot;, &quot;Segoe UI&quot;, Ubuntu, &quot;Droid Sans&quot;, sans-serif, &quot;PingFang SC&quot;; font-size: 11px; text-rendering: geometricprecision; fill: rgb(255, 255, 255);">Conv2D</text><title>conv2d_3</title></g><g class="node-attribute" transform="translate(0,21)"><path d="M0,0h119.90625a0,0 0 0 1 0,0v32a0,0 0 0 1 0,0h-119.90625a0,0 0 0 1 0,0v-32a0,0 0 0 1 0,0z" style="stroke: rgb(0, 0, 0); fill: rgb(255, 255, 255); stroke-width: 0;"/><text id="initializer-conv2d_3/kernel:0" xml:space="preserve" x="6" y="13" style="font-family: -apple-system, BlinkMacSystemFont, &quot;Segoe WPC&quot;, &quot;Segoe UI&quot;, Ubuntu, &quot;Droid Sans&quot;, sans-serif, &quot;PingFang SC&quot;; font-size: 9px; font-weight: normal; text-rendering: geometricprecision;"><title>float32[5,5,128,128]</title><tspan style="font-weight: bold;">kernel</tspan><tspan>〈5×5×128×128〉</tspan></text><text id="initializer-conv2d_3/bias:0" xml:space="preserve" x="6" y="26" style="font-family: -apple-system, BlinkMacSystemFont, &quot;Segoe WPC&quot;, &quot;Segoe UI&quot;, Ubuntu, &quot;Droid Sans&quot;, sans-serif, &quot;PingFang SC&quot;; font-size: 9px; font-weight: normal; text-rendering: geometricprecision;"><title>float32[128]</title><tspan style="font-weight: bold;">bias</tspan><tspan>〈128〉</tspan></text><line class="node" x1="0" x2="119.90625" y1="0" y2="0" style="stroke: rgb(51, 51, 51); fill: none; stroke-width: 1px;"/></g><g class="node-item node-item-type node-item-type-activation" transform="translate(0,53)"><path d="M0,0h119.90625a0,0 0 0 1 0,0v16a5,5 0 0 1 -5,5h-109.90625a5,5 0 0 1 -5,-5v-16a0,0 0 0 1 0,0z" style="stroke: rgb(0, 0, 0); fill: rgb(112, 41, 33); stroke-width: 0;"/><text x="6" y="15" style="font-family: -apple-system, BlinkMacSystemFont, &quot;Segoe WPC&quot;, &quot;Segoe UI&quot;, Ubuntu, &quot;Droid Sans&quot;, sans-serif, &quot;PingFang SC&quot;; font-size: 11px; text-rendering: geometricprecision; fill: rgb(255, 255, 255);">ReLU</text></g><line class="node" x1="0" x2="119.90625" y1="53" y2="53" style="stroke: rgb(51, 51, 51); fill: none; stroke-width: 1px;"/><path class="node border" d="M5,0h109.90625a5,5 0 0 1 5,5v64a5,5 0 0 1 -5,5h-109.90625a5,5 0 0 1 -5,-5v-64a5,5 0 0 1 5,-5z" style="stroke: rgb(51, 51, 51); fill: none; stroke-width: 1px;"/></g><g id="node-name-max_pooling2d_3" class="node graph-node" transform="translate(15.296871185302734,623.1533203125)" style="opacity: 1;"><g class="node-item node-item-type node-item-type-pool" transform="translate(0,0)"><path d="M5,0h79.3125a5,5 0 0 1 5,5v11.041015625a5,5 0 0 1 -5,5h-79.3125a5,5 0 0 1 -5,-5v-11.041015625a5,5 0 0 1 5,-5z" style="stroke: rgb(0, 0, 0); fill: rgb(51, 85, 51); stroke-width: 0;"/><text x="6" y="15" style="font-family: -apple-system, BlinkMacSystemFont, &quot;Segoe WPC&quot;, &quot;Segoe UI&quot;, Ubuntu, &quot;Droid Sans&quot;, sans-serif, &quot;PingFang SC&quot;; font-size: 11px; text-rendering: geometricprecision; fill: rgb(255, 255, 255);">MaxPooling2D</text><title>max_pooling2d_3</title></g><path class="node border" d="M5,0h79.3125a5,5 0 0 1 5,5v11.041015625a5,5 0 0 1 -5,5h-79.3125a5,5 0 0 1 -5,-5v-11.041015625a5,5 0 0 1 5,-5z" style="stroke: rgb(51, 51, 51); fill: none; stroke-width: 1px;"/></g><g id="node-name-flatten" class="node graph-node" transform="translate(34.84375,664.1943359375)" style="opacity: 1;"><g class="node-item node-item-type node-item-type-shape" transform="translate(0,0)"><path d="M5,0h40.21875a5,5 0 0 1 5,5v11a5,5 0 0 1 -5,5h-40.21875a5,5 0 0 1 -5,-5v-11a5,5 0 0 1 5,-5z" style="stroke: rgb(0, 0, 0); fill: rgb(108, 79, 71); stroke-width: 0;"/><text x="6" y="15" style="font-family: -apple-system, BlinkMacSystemFont, &quot;Segoe WPC&quot;, &quot;Segoe UI&quot;, Ubuntu, &quot;Droid Sans&quot;, sans-serif, &quot;PingFang SC&quot;; font-size: 11px; text-rendering: geometricprecision; fill: rgb(255, 255, 255);">Flatten</text><title>flatten</title></g><path class="node border" d="M5,0h40.21875a5,5 0 0 1 5,5v11a5,5 0 0 1 -5,5h-40.21875a5,5 0 0 1 -5,-5v-11a5,5 0 0 1 5,-5z" style="stroke: rgb(51, 51, 51); fill: none; stroke-width: 1px;"/></g><g id="node-name-dense" class="node graph-node" transform="translate(5.0859375,705.1943359375)" style="opacity: 1;"><g class="node-item node-item-type node-item-type-layer" transform="translate(0,0)"><path d="M5,0h99.734375a5,5 0 0 1 5,5v16a0,0 0 0 1 0,0h-109.734375a0,0 0 0 1 0,0v-16a5,5 0 0 1 5,-5z" style="stroke: rgb(0, 0, 0); fill: rgb(51, 85, 136); stroke-width: 0;"/><text x="6" y="15" style="font-family: -apple-system, BlinkMacSystemFont, &quot;Segoe WPC&quot;, &quot;Segoe UI&quot;, Ubuntu, &quot;Droid Sans&quot;, sans-serif, &quot;PingFang SC&quot;; font-size: 11px; text-rendering: geometricprecision; fill: rgb(255, 255, 255);">Dense</text><title>dense</title></g><g class="node-attribute" transform="translate(0,21)"><path d="M0,0h109.734375a0,0 0 0 1 0,0v32a0,0 0 0 1 0,0h-109.734375a0,0 0 0 1 0,0v-32a0,0 0 0 1 0,0z" style="stroke: rgb(0, 0, 0); fill: rgb(255, 255, 255); stroke-width: 0;"/><text id="initializer-dense/kernel:0" xml:space="preserve" x="6" y="13" style="font-family: -apple-system, BlinkMacSystemFont, &quot;Segoe WPC&quot;, &quot;Segoe UI&quot;, Ubuntu, &quot;Droid Sans&quot;, sans-serif, &quot;PingFang SC&quot;; font-size: 9px; font-weight: normal; text-rendering: geometricprecision;"><title>float32[25088,512]</title><tspan style="font-weight: bold;">kernel</tspan><tspan>〈25088×512〉</tspan></text><text id="initializer-dense/bias:0" xml:space="preserve" x="6" y="26" style="font-family: -apple-system, BlinkMacSystemFont, &quot;Segoe WPC&quot;, &quot;Segoe UI&quot;, Ubuntu, &quot;Droid Sans&quot;, sans-serif, &quot;PingFang SC&quot;; font-size: 9px; font-weight: normal; text-rendering: geometricprecision;"><title>float32[512]</title><tspan style="font-weight: bold;">bias</tspan><tspan>〈512〉</tspan></text><line class="node" x1="0" x2="109.734375" y1="0" y2="0" style="stroke: rgb(51, 51, 51); fill: none; stroke-width: 1px;"/></g><g class="node-item node-item-type" transform="translate(0,53)"><path d="M0,0h109.734375a0,0 0 0 1 0,0v16a5,5 0 0 1 -5,5h-99.734375a5,5 0 0 1 -5,-5v-16a0,0 0 0 1 0,0z" style="stroke: rgb(0, 0, 0); fill: rgb(0, 0, 0); stroke-width: 0;"/><text x="6" y="15" style="font-family: -apple-system, BlinkMacSystemFont, &quot;Segoe WPC&quot;, &quot;Segoe UI&quot;, Ubuntu, &quot;Droid Sans&quot;, sans-serif, &quot;PingFang SC&quot;; font-size: 11px; text-rendering: geometricprecision; fill: rgb(255, 255, 255);">SELU</text></g><line class="node" x1="0" x2="109.734375" y1="53" y2="53" style="stroke: rgb(51, 51, 51); fill: none; stroke-width: 1px;"/><path class="node border" d="M5,0h99.734375a5,5 0 0 1 5,5v64a5,5 0 0 1 -5,5h-99.734375a5,5 0 0 1 -5,-5v-64a5,5 0 0 1 5,-5z" style="stroke: rgb(51, 51, 51); fill: none; stroke-width: 1px;"/></g><g id="node-name-dropout" class="node graph-node" transform="translate(31.6484375,799.1943359375)" style="opacity: 1;"><g class="node-item node-item-type node-item-type-dropout" transform="translate(0,0)"><path d="M5,0h46.609375a5,5 0 0 1 5,5v11a5,5 0 0 1 -5,5h-46.609375a5,5 0 0 1 -5,-5v-11a5,5 0 0 1 5,-5z" style="stroke: rgb(0, 0, 0); fill: rgb(69, 71, 112); stroke-width: 0;"/><text x="6" y="15" style="font-family: -apple-system, BlinkMacSystemFont, &quot;Segoe WPC&quot;, &quot;Segoe UI&quot;, Ubuntu, &quot;Droid Sans&quot;, sans-serif, &quot;PingFang SC&quot;; font-size: 11px; text-rendering: geometricprecision; fill: rgb(255, 255, 255);">Dropout</text><title>dropout</title></g><path class="node border" d="M5,0h46.609375a5,5 0 0 1 5,5v11a5,5 0 0 1 -5,5h-46.609375a5,5 0 0 1 -5,-5v-11a5,5 0 0 1 5,-5z" style="stroke: rgb(51, 51, 51); fill: none; stroke-width: 1px;"/></g><g id="node-name-dense_1" class="node graph-node" transform="translate(10.9765625,840.1943359375)" style="opacity: 1;"><g class="node-item node-item-type node-item-type-layer" transform="translate(0,0)"><path d="M5,0h87.953125a5,5 0 0 1 5,5v16a0,0 0 0 1 0,0h-97.953125a0,0 0 0 1 0,0v-16a5,5 0 0 1 5,-5z" style="stroke: rgb(0, 0, 0); fill: rgb(51, 85, 136); stroke-width: 0;"/><text x="6" y="15" style="font-family: -apple-system, BlinkMacSystemFont, &quot;Segoe WPC&quot;, &quot;Segoe UI&quot;, Ubuntu, &quot;Droid Sans&quot;, sans-serif, &quot;PingFang SC&quot;; font-size: 11px; text-rendering: geometricprecision; fill: rgb(255, 255, 255);">Dense</text><title>dense_1</title></g><g class="node-attribute" transform="translate(0,21)"><path d="M0,0h97.953125a0,0 0 0 1 0,0v32a0,0 0 0 1 0,0h-97.953125a0,0 0 0 1 0,0v-32a0,0 0 0 1 0,0z" style="stroke: rgb(0, 0, 0); fill: rgb(255, 255, 255); stroke-width: 0;"/><text id="initializer-dense_1/kernel:0" xml:space="preserve" x="6" y="13" style="font-family: -apple-system, BlinkMacSystemFont, &quot;Segoe WPC&quot;, &quot;Segoe UI&quot;, Ubuntu, &quot;Droid Sans&quot;, sans-serif, &quot;PingFang SC&quot;; font-size: 9px; font-weight: normal; text-rendering: geometricprecision;"><title>float32[512,256]</title><tspan style="font-weight: bold;">kernel</tspan><tspan>〈512×256〉</tspan></text><text id="initializer-dense_1/bias:0" xml:space="preserve" x="6" y="26" style="font-family: -apple-system, BlinkMacSystemFont, &quot;Segoe WPC&quot;, &quot;Segoe UI&quot;, Ubuntu, &quot;Droid Sans&quot;, sans-serif, &quot;PingFang SC&quot;; font-size: 9px; font-weight: normal; text-rendering: geometricprecision;"><title>float32[256]</title><tspan style="font-weight: bold;">bias</tspan><tspan>〈256〉</tspan></text><line class="node" x1="0" x2="97.953125" y1="0" y2="0" style="stroke: rgb(51, 51, 51); fill: none; stroke-width: 1px;"/></g><g class="node-item node-item-type" transform="translate(0,53)"><path d="M0,0h97.953125a0,0 0 0 1 0,0v16a5,5 0 0 1 -5,5h-87.953125a5,5 0 0 1 -5,-5v-16a0,0 0 0 1 0,0z" style="stroke: rgb(0, 0, 0); fill: rgb(0, 0, 0); stroke-width: 0;"/><text x="6" y="15" style="font-family: -apple-system, BlinkMacSystemFont, &quot;Segoe WPC&quot;, &quot;Segoe UI&quot;, Ubuntu, &quot;Droid Sans&quot;, sans-serif, &quot;PingFang SC&quot;; font-size: 11px; text-rendering: geometricprecision; fill: rgb(255, 255, 255);">SELU</text></g><line class="node" x1="0" x2="97.953125" y1="53" y2="53" style="stroke: rgb(51, 51, 51); fill: none; stroke-width: 1px;"/><path class="node border" d="M5,0h87.953125a5,5 0 0 1 5,5v64a5,5 0 0 1 -5,5h-87.953125a5,5 0 0 1 -5,-5v-64a5,5 0 0 1 5,-5z" style="stroke: rgb(51, 51, 51); fill: none; stroke-width: 1px;"/></g><g id="node-name-dropout_1" class="node graph-node" transform="translate(31.6484375,934.1943359375)" style="opacity: 1;"><g class="node-item node-item-type node-item-type-dropout" transform="translate(0,0)"><path d="M5,0h46.609375a5,5 0 0 1 5,5v11a5,5 0 0 1 -5,5h-46.609375a5,5 0 0 1 -5,-5v-11a5,5 0 0 1 5,-5z" style="stroke: rgb(0, 0, 0); fill: rgb(69, 71, 112); stroke-width: 0;"/><text x="6" y="15" style="font-family: -apple-system, BlinkMacSystemFont, &quot;Segoe WPC&quot;, &quot;Segoe UI&quot;, Ubuntu, &quot;Droid Sans&quot;, sans-serif, &quot;PingFang SC&quot;; font-size: 11px; text-rendering: geometricprecision; fill: rgb(255, 255, 255);">Dropout</text><title>dropout_1</title></g><path class="node border" d="M5,0h46.609375a5,5 0 0 1 5,5v11a5,5 0 0 1 -5,5h-46.609375a5,5 0 0 1 -5,-5v-11a5,5 0 0 1 5,-5z" style="stroke: rgb(51, 51, 51); fill: none; stroke-width: 1px;"/></g><g id="node-name-dense_2" class="node graph-node" transform="translate(10.8828125,975.1943359375)" style="opacity: 1;"><g class="node-item node-item-type node-item-type-layer" transform="translate(0,0)"><path d="M5,0h88.140625a5,5 0 0 1 5,5v16a0,0 0 0 1 0,0h-98.140625a0,0 0 0 1 0,0v-16a5,5 0 0 1 5,-5z" style="stroke: rgb(0, 0, 0); fill: rgb(51, 85, 136); stroke-width: 0;"/><text x="6" y="15" style="font-family: -apple-system, BlinkMacSystemFont, &quot;Segoe WPC&quot;, &quot;Segoe UI&quot;, Ubuntu, &quot;Droid Sans&quot;, sans-serif, &quot;PingFang SC&quot;; font-size: 11px; text-rendering: geometricprecision; fill: rgb(255, 255, 255);">Dense</text><title>dense_2</title></g><g class="node-attribute" transform="translate(0,21)"><path d="M0,0h98.140625a0,0 0 0 1 0,0v32a0,0 0 0 1 0,0h-98.140625a0,0 0 0 1 0,0v-32a0,0 0 0 1 0,0z" style="stroke: rgb(0, 0, 0); fill: rgb(255, 255, 255); stroke-width: 0;"/><text id="initializer-dense_2/kernel:0" xml:space="preserve" x="6" y="13" style="font-family: -apple-system, BlinkMacSystemFont, &quot;Segoe WPC&quot;, &quot;Segoe UI&quot;, Ubuntu, &quot;Droid Sans&quot;, sans-serif, &quot;PingFang SC&quot;; font-size: 9px; font-weight: normal; text-rendering: geometricprecision;"><title>float32[256,128]</title><tspan style="font-weight: bold;">kernel</tspan><tspan>〈256×128〉</tspan></text><text id="initializer-dense_2/bias:0" xml:space="preserve" x="6" y="26" style="font-family: -apple-system, BlinkMacSystemFont, &quot;Segoe WPC&quot;, &quot;Segoe UI&quot;, Ubuntu, &quot;Droid Sans&quot;, sans-serif, &quot;PingFang SC&quot;; font-size: 9px; font-weight: normal; text-rendering: geometricprecision;"><title>float32[128]</title><tspan style="font-weight: bold;">bias</tspan><tspan>〈128〉</tspan></text><line class="node" x1="0" x2="98.140625" y1="0" y2="0" style="stroke: rgb(51, 51, 51); fill: none; stroke-width: 1px;"/></g><g class="node-item node-item-type" transform="translate(0,53)"><path d="M0,0h98.140625a0,0 0 0 1 0,0v16a5,5 0 0 1 -5,5h-88.140625a5,5 0 0 1 -5,-5v-16a0,0 0 0 1 0,0z" style="stroke: rgb(0, 0, 0); fill: rgb(0, 0, 0); stroke-width: 0;"/><text x="6" y="15" style="font-family: -apple-system, BlinkMacSystemFont, &quot;Segoe WPC&quot;, &quot;Segoe UI&quot;, Ubuntu, &quot;Droid Sans&quot;, sans-serif, &quot;PingFang SC&quot;; font-size: 11px; text-rendering: geometricprecision; fill: rgb(255, 255, 255);">SELU</text></g><line class="node" x1="0" x2="98.140625" y1="53" y2="53" style="stroke: rgb(51, 51, 51); fill: none; stroke-width: 1px;"/><path class="node border" d="M5,0h88.140625a5,5 0 0 1 5,5v64a5,5 0 0 1 -5,5h-88.140625a5,5 0 0 1 -5,-5v-64a5,5 0 0 1 5,-5z" style="stroke: rgb(51, 51, 51); fill: none; stroke-width: 1px;"/></g><g id="node-name-dropout_2" class="node graph-node" transform="translate(31.6484375,1069.1943359375)" style="opacity: 1;"><g class="node-item node-item-type node-item-type-dropout" transform="translate(0,0)"><path d="M5,0h46.609375a5,5 0 0 1 5,5v11a5,5 0 0 1 -5,5h-46.609375a5,5 0 0 1 -5,-5v-11a5,5 0 0 1 5,-5z" style="stroke: rgb(0, 0, 0); fill: rgb(69, 71, 112); stroke-width: 0;"/><text x="6" y="15" style="font-family: -apple-system, BlinkMacSystemFont, &quot;Segoe WPC&quot;, &quot;Segoe UI&quot;, Ubuntu, &quot;Droid Sans&quot;, sans-serif, &quot;PingFang SC&quot;; font-size: 11px; text-rendering: geometricprecision; fill: rgb(255, 255, 255);">Dropout</text><title>dropout_2</title></g><path class="node border" d="M5,0h46.609375a5,5 0 0 1 5,5v11a5,5 0 0 1 -5,5h-46.609375a5,5 0 0 1 -5,-5v-11a5,5 0 0 1 5,-5z" style="stroke: rgb(51, 51, 51); fill: none; stroke-width: 1px;"/></g><g id="node-name-dense_3" class="node graph-node" transform="translate(16.6328125,1110.1943359375)" style="opacity: 1;"><g class="node-item node-item-type node-item-type-layer" transform="translate(0,0)"><path d="M5,0h76.640625a5,5 0 0 1 5,5v16a0,0 0 0 1 0,0h-86.640625a0,0 0 0 1 0,0v-16a5,5 0 0 1 5,-5z" style="stroke: rgb(0, 0, 0); fill: rgb(51, 85, 136); stroke-width: 0;"/><text x="6" y="15" style="font-family: -apple-system, BlinkMacSystemFont, &quot;Segoe WPC&quot;, &quot;Segoe UI&quot;, Ubuntu, &quot;Droid Sans&quot;, sans-serif, &quot;PingFang SC&quot;; font-size: 11px; text-rendering: geometricprecision; fill: rgb(255, 255, 255);">Dense</text><title>dense_3</title></g><g class="node-attribute" transform="translate(0,21)"><path d="M0,0h86.640625a0,0 0 0 1 0,0v32a0,0 0 0 1 0,0h-86.640625a0,0 0 0 1 0,0v-32a0,0 0 0 1 0,0z" style="stroke: rgb(0, 0, 0); fill: rgb(255, 255, 255); stroke-width: 0;"/><text id="initializer-dense_3/kernel:0" xml:space="preserve" x="6" y="13" style="font-family: -apple-system, BlinkMacSystemFont, &quot;Segoe WPC&quot;, &quot;Segoe UI&quot;, Ubuntu, &quot;Droid Sans&quot;, sans-serif, &quot;PingFang SC&quot;; font-size: 9px; font-weight: normal; text-rendering: geometricprecision;"><title>float32[128,5]</title><tspan style="font-weight: bold;">kernel</tspan><tspan>〈128×5〉</tspan></text><text id="initializer-dense_3/bias:0" xml:space="preserve" x="6" y="26" style="font-family: -apple-system, BlinkMacSystemFont, &quot;Segoe WPC&quot;, &quot;Segoe UI&quot;, Ubuntu, &quot;Droid Sans&quot;, sans-serif, &quot;PingFang SC&quot;; font-size: 9px; font-weight: normal; text-rendering: geometricprecision;"><title>float32[5]</title><tspan style="font-weight: bold;">bias</tspan><tspan>〈5〉</tspan></text><line class="node" x1="0" x2="86.640625" y1="0" y2="0" style="stroke: rgb(51, 51, 51); fill: none; stroke-width: 1px;"/></g><g class="node-item node-item-type node-item-type-activation" transform="translate(0,53)"><path d="M0,0h86.640625a0,0 0 0 1 0,0v16a5,5 0 0 1 -5,5h-76.640625a5,5 0 0 1 -5,-5v-16a0,0 0 0 1 0,0z" style="stroke: rgb(0, 0, 0); fill: rgb(112, 41, 33); stroke-width: 0;"/><text x="6" y="15" style="font-family: -apple-system, BlinkMacSystemFont, &quot;Segoe WPC&quot;, &quot;Segoe UI&quot;, Ubuntu, &quot;Droid Sans&quot;, sans-serif, &quot;PingFang SC&quot;; font-size: 11px; text-rendering: geometricprecision; fill: rgb(255, 255, 255);">Softmax</text></g><line class="node" x1="0" x2="86.640625" y1="53" y2="53" style="stroke: rgb(51, 51, 51); fill: none; stroke-width: 1px;"/><path class="node border" d="M5,0h76.640625a5,5 0 0 1 5,5v64a5,5 0 0 1 -5,5h-76.640625a5,5 0 0 1 -5,-5v-64a5,5 0 0 1 5,-5z" style="stroke: rgb(51, 51, 51); fill: none; stroke-width: 1px;"/></g><g class="node" transform="translate(30.6953125,1204.1943359375)" style="opacity: 1;"><g class="node-item graph-item-output" transform="translate(0,0)"><path d="M5,0h48.515625a5,5 0 0 1 5,5v11a5,5 0 0 1 -5,5h-48.515625a5,5 0 0 1 -5,-5v-11a5,5 0 0 1 5,-5z" style="stroke: rgb(0, 0, 0); fill: rgb(238, 238, 238); stroke-width: 0;"/><text x="6" y="15" style="font-family: -apple-system, BlinkMacSystemFont, &quot;Segoe WPC&quot;, &quot;Segoe UI&quot;, Ubuntu, &quot;Droid Sans&quot;, sans-serif, &quot;PingFang SC&quot;; font-size: 11px; text-rendering: geometricprecision;">dense_3</text></g><path class="node border" d="M5,0h48.515625a5,5 0 0 1 5,5v11a5,5 0 0 1 -5,5h-48.515625a5,5 0 0 1 -5,-5v-11a5,5 0 0 1 5,-5z" style="stroke: rgb(51, 51, 51); fill: none; stroke-width: 1px;"/></g></g></g></svg>